<svg version="1.0" xmlns="http://www.w3.org/2000/svg" width="5333.333" height="5333.333" viewBox="0 0 4000 4000">
    <path
        d="M1985.9 788.5c-22.9 15.2-49.8 30.3-89.9 50.4-60.7 30.3-105.7 49-173.4 72.3-79.2 27.1-163.7 48.5-254.1 64.2-27.2 4.8-78.7 12-103 14.6-11 1.1-27.6 2.9-37 4-9.3 1-24.4 2.3-33.5 2.9-9.1.6-21.9 1.6-28.5 2.2-6.6.6-23.5 1.5-37.5 1.9-35 1.2-163.5 1.2-183.9 0-54-3.1-60.3-3.3-62.1-1.3-2.7 2.9-4.5 24.2-8 94.8-2.9 59-4.1 230.8-2 293.5 2.5 77.4 3.2 95.6 4.6 119 .9 14 1.9 35.2 2.4 47 .7 19.3 1.9 38 5 80 1.4 18.3 1.3 23.5-.4 24.9-3.1 2.6-18.7 9.4-48.8 21.5-37.4 15-38.4 15.3-47.3 17.2-8.9 1.9-11.5 3.6-11.5 7.4 0 1.7 3.6 17.3 8.1 34.8 19.9 78.2 40.1 158.5 44.8 178.2 13.8 58 20.4 87.2 32.1 141.5 2.8 13.2 6.7 31.2 8.6 40 3.4 15.9 9 45.7 15.9 84 2 11 4.7 25.8 6 33 1.4 7.1 3.4 18.6 4.5 25.5 2.5 15.4 4.3 21.1 7.8 24.5 1.5 1.5 11.3 7 21.7 12.2 40.3 20.2 57.8 30.2 62.8 35.8 3.2 3.7 7.5 13 19.1 41.6 38.3 95.1 77.7 174.2 125 251.4 24.6 40.3 73.1 111.7 100 147.5 8.2 11 53.6 67.9 60.7 76 14.5 16.8 29.8 34.8 32.7 38.4 1.8 2.2 11.7 13 22 24s23 24.7 28.3 30.5c5.3 5.8 19.4 20.1 31.5 31.7 39.3 37.8 65.9 62.8 71.9 67.9 3.3 2.7 11 9.5 17.1 15 11.8 10.7 32 27.8 39.4 33.5 2.5 1.9 7.2 5.7 10.5 8.5 7.4 6.3 34.5 27.6 46.9 36.8 78.4 58.5 124 89.2 190.6 128.4 34 20 46.6 26.9 84.8 46.8 19.1 9.9 33.9 16.9 36.2 17.2 4.7.7 9.7-1.6 34.5-15.1 9.4-5.1 21.1-11.5 26-14.1 38.3-20.4 96-54.3 136.5-80.3 48-30.7 103.9-70.4 138.5-98.2 5-4 14.2-11.3 20.5-16.4 6.3-5 22.4-18.6 35.6-30.1 13.3-11.6 29-25.2 35-30.4 17-14.6 58-52.6 78.8-73.1 17.7-17.4 74.1-77.5 86.5-92.1 3.1-3.7 9-10.6 13.1-15.4 4.1-4.8 11-12.9 15.3-17.9 11.5-13.5 53-65.4 62.8-78.6 27.8-37.2 64.8-91.3 86.6-126.5 46.1-74.3 92.5-163.5 123.1-236.5 7.9-18.8 19-45.7 23.2-56.4 2.4-5.9 5.3-12 6.6-13.6 1.3-1.5 5.2-4.1 8.7-5.8 10.2-4.8 63.6-34.1 70.9-38.8 10-6.4 10.1-6.7 18.9-54.4 6.5-35 13.8-71.8 18.4-92 1.4-6.3 4.1-18.9 6-28 12.1-58.5 39.3-172.9 58.2-245 13.6-52 18.6-70.9 21.8-82.5 9.3-33 16.5-60.8 16.5-63.5 0-3.8-2.6-5.5-11.5-7.4-9.4-2-18.9-5.4-52.5-19-31.6-12.7-43.2-17.7-45.5-19.6-1.8-1.5-1.9-6.3-.5-25 3.1-42.3 4.3-60.7 5-79.5 1.1-29.1 3.2-62.9 4-63.5.4-.3 1-12 1.4-26 .3-14 1.2-35.6 1.9-48 1.7-31 1.6-256.9-.1-295-.7-15.1-1.6-34.6-1.9-43.3-.3-8.6-.9-15.7-1.3-15.7-.3 0-1.2-9.8-1.9-21.8-1.6-27.6-3.1-39.6-5.2-41.7-1.7-1.7-6.5-1.6-62.6 1.5-21.2 1.2-151 1.2-186.8 0-14.3-.4-31.4-1.3-38-1.9-6.6-.6-19.4-1.6-28.5-2.1-9.1-.6-24.6-2-34.5-3-9.9-1.1-24.5-2.7-32.5-3.5-8-.8-17-1.8-20-2.1-3-.3-21-2.8-40-5.4-29.8-4.3-46.3-7-88.4-14.6-29.8-5.4-78.9-16.6-117.6-26.8-74.4-19.8-145.4-44-211.9-72.3-23-9.8-78.5-36.1-97.1-46.1-20.7-11-48.6-27.3-61.7-35.9-8-5.3-15.2-9.3-16.5-9.3-1.3.1-9.3 4.8-17.9 10.5zm45.6 66.6c12.7 6.3 26.8 13.6 31.5 16.1 15.7 8.5 33.7 17.5 41.1 20.6 4.1 1.7 9.3 4 11.5 5.1 6.6 3.2 49.3 22.1 54.9 24.2 2.7 1.1 6.4 2.6 8 3.4 1.7.7 10.7 4.3 20 8 9.4 3.7 17.9 7 19 7.5 7.8 3.2 75 25.7 88 29.5 38.6 11.3 64.6 18.7 68 19.4 2.2.5 13 3.2 24 6 11 2.9 22.7 5.8 26 6.6 20.9 4.7 49 10.9 55 12 3.9.8 10.2 2.1 14 3 6 1.3 17.3 3.3 47.5 8.6 11.5 2 30.7 4.9 36.5 5.5 3.3.3 6.2.7 6.5.9.6.3 12.2 2 21.5 3 2.8.3 6 .8 7.2 1 1.2.3 6.6 1 12 1.6 5.4.5 13.5 1.4 18.1 2 19.3 2.2 26.3 2.9 36.7 3.9 15 1.4 19.8 1.8 28.5 2.5 4.1.3 9.8.8 12.5 1 45.5 3.9 74.5 4.9 146.5 4.9 37.7.1 82.1-.1 98.8-.3 17.1-.2 30.7 0 31.2.5 1.1 1.1 4.7 50.9 5.6 76.9.3 10.4.8 19.3 1 19.6.9 1.5 1.9 70 1.9 126.9 0 91.8-.8 126.4-5 220.4-.3 6.1-.7 14.5-1 18.6-.3 4.1-.7 12.7-1 19-.3 6.3-.7 14.4-1 18-.3 3.6-1 14.8-1.5 25-1.3 23.6-1.8 31.8-2.5 40.5-.3 3.8-.8 9.5-1 12.5-1.5 21.1-2.4 31-4.1 45-.8 6.9-1.4 15-1.4 18.1 0 4-.5 6.3-1.7 7.7-2.1 2.3-6.3 3.9-6.3 2.3 0-.6-1.2-1.1-2.7-1-2.5 0-2.6.1-.8 1 1.5.7 1.2.7-1 .2-3.5-.9-18.7-.9-23 0-2.6.6-2.7.5-.5-.2 1.9-.7 1.1-.9-3.5-.8-3.3 0-6.6-.2-7.3-.7-1.6-1-1.5-6.8.3-25.1 1.8-18 3.3-34.3 4-44.5.3-4.1.7-9.8 1-12.5.3-2.8.7-9.3 1-14.5.3-5.2.7-11.3 1-13.5.2-2.2.7-8.3 1-13.5.3-5.2.8-10.9 1-12.5.5-3.5 2.2-38.1 3-60.5.3-8.5.7-18 1-21 .3-3 .7-14.7 1-26 .3-11.3 1-32.4 1.6-47 1-28.6.5-226.9-.7-277.4l-.7-30.8-6.1.7c-9 1-182.5 1.4-201.1.5-8.8-.5-19.6-1.1-24-1.4-4.4-.3-15.2-1-24-1.6-8.8-.6-23.4-1.7-32.5-2.5-9.1-.8-19.4-1.6-23-1.9-11.6-.9-71.1-8.2-94-11.5-14.6-2.1-19.7-3-22-3.6-.8-.2-4.2-.7-7.5-1-3.2-.4-6.2-.8-6.5-1-.3-.2-5-1.1-10.5-2-10.2-1.6-43.1-8.4-54.3-11.1-3.4-.8-7.4-1.7-9-1.9-5.8-.7-82.7-20.2-106.2-26.9-4.7-1.3-12.8-3.6-18-5.1-36.7-10.5-81.5-25.6-120.2-40.6-10.1-3.9-21.2-8.1-24.8-9.4-6.4-2.3-25.8-10.5-47.7-20.3-6.1-2.8-12.9-5.8-15-6.7-6.7-2.8-47.6-23.2-54.9-27.3-3.8-2.1-10.9-6-15.9-8.6-11.5-6.1-27.9-17-30.5-20.5l-2-2.6-2 2.6c-4.9 6.5-36.7 25.2-76 44.8-44.7 22.3-86.5 39.9-146 61.6-26.5 9.7-61 20.9-91 29.5-4.1 1.1-10.4 3-14 4-16 4.8-91.9 24.2-100 25.6-1.4.3-5.2 1.1-8.5 1.9-15.2 3.6-61.8 12.9-70.6 14.1-3.6.5-8.7 1.3-12.9 2.1-13.3 2.4-89.5 12.2-108 13.8-32.9 2.9-41.6 3.6-55 4.5-8.5.5-19.1 1.3-23.5 1.6-4.4.3-15.2.9-24 1.4-18.6.9-189.1.5-198.1-.5l-6.1-.7-.7 30.8c-1.2 50.5-1.7 248.8-.7 277.4.6 14.6 1.3 35.7 1.6 47 .3 11.3.7 23 1 26 .3 3 .7 12.5 1 21 .8 22.4 2.5 57 3 60.5.2 1.6.7 7.3 1 12.5.3 5.2.8 11.3 1 13.5.3 2.2.7 8.3 1 13.5.3 5.2.7 11.7 1 14.5.3 2.7.7 8.4 1 12.5.7 10.2 2.2 26.5 4 44.5 1.8 18.3 1.9 24.1.3 25.1-.7.5-4 .7-7.3.7-4.6-.1-5.4.1-3.5.8 2.2.7 2.1.8-.5.2-4.3-.9-19.5-.9-23 0-2.2.5-2.5.5-1-.2 1.8-.9 1.7-1-.7-1-1.6-.1-2.8.3-2.8.8 0 1.6-4-.1-5.5-2.2-.9-1.3-1.5-4.4-1.5-7.7 0-3-.6-11.1-1.4-18-1.7-14-2.6-23.9-4.1-45-.2-3-.7-8.7-1-12.5-.7-8.7-1.2-16.9-2.5-40.5-.5-10.2-1.2-21.4-1.5-25-.3-3.6-.7-11.7-1-18-.3-6.3-.7-14.9-1-19-.3-4.1-.7-12.5-1-18.6-4.2-94-5-128.6-5-220.4 0-56.9 1-125.4 1.9-126.9.2-.3.7-9.2 1-19.6.9-26 4.5-75.8 5.6-76.9.5-.5 13.9-.7 30.7-.5 16.4.2 60.2.4 97.3.3 70.1 0 101.2-1.1 144-4.9 4.3-.3 10.4-.9 23.5-2 17.9-1.5 36.3-3.4 53.5-5.5 4.7-.5 12.8-1.5 18-2 5.2-.6 10.2-1.2 11-1.4.8-.3 4.2-.7 7.5-1.1 7.8-.8 19.6-2.4 21.5-3 .8-.2 3.8-.6 6.5-1 5.6-.7 27.1-4 35.5-5.4 3-.6 10.7-1.9 17-3 6.3-1.1 17.4-3.2 24.5-4.7 7.2-1.5 15.9-3.2 19.5-3.9 8-1.6 42.2-9.2 47-10.5 1.9-.6 10.9-2.8 20-5 30-7.2 76.9-20.2 103.5-28.7 28.7-9.1 75.3-25 86-29.3 1.1-.5 9.2-3.6 18-7.1 8.8-3.4 19.3-7.7 23.3-9.6 4.1-1.8 7.5-3.3 7.7-3.3.4 0 45.3-20 56-24.9 10.2-4.8 41.9-20.7 48-24.1 4.8-2.7 30.1-15.9 43.9-22.8 7.9-4 10.9-5 14-4.8 2.9.2 11 3.7 27.1 11.7zm-16.9 82.3c2.8 1.3 5.4 2.9 5.8 3.4.4.6 1.9 1.7 3.4 2.5s5.2 2.8 8.2 4.4c3 1.7 9.8 5.3 15 8 5.2 2.7 11.3 6 13.5 7.3 5.4 3.1 43 22 43.7 22 .3 0 4.5 1.8 9.3 4.1 13.7 6.4 35.5 15.9 36.3 15.9.5 0 3.1 1.1 5.9 2.4 2.7 1.4 10.6 4.6 17.4 7.1 6.8 2.6 15.2 5.7 18.6 7.1 25.7 9.9 98 33.6 113.8 37.2 2.2.5 9.6 2.6 16.5 4.6 27.9 8.2 58 16 96 24.9 10 2.4 14.2 3.3 41.5 9.2 6.6 1.4 14.7 3.2 18 4 3.3.8 7.4 1.6 9 1.9 1.7.3 5.5 1 8.5 1.6 3 .5 8.2 1.5 11.5 2 3.3.5 8.3 1.4 11 2 5.3 1.2 22.3 3.9 44.5 7.1 7.4 1.1 16.4 2.4 20 2.9 8.8 1.3 20.6 2.9 31.3 4 4.9.6 9.8 1.2 11 1.5 1.2.2 4.7.7 7.7 1 3 .3 7.3.8 9.5 1 4.8.7 10 1.2 22 2 5 .4 9.7.9 10.5 1.2.8.2 5.3.6 10 .9 4.7.2 13.7.8 20 1.4 20 1.8 36.1 2.6 67.5 3.5 12.1.3 27.6.8 34.5 1 6.9.2 24.2.4 38.5.6 14.3.1 28.9.5 32.5 1 3.6.4 9.2.9 12.5 1 3.3.1 6.5.5 7 1 .6.4 2.6 1.1 4.5 1.4 4.6.8 8.6 2.9 8.2 4.3-.1.7.9 1.2 2.4 1.2 2.2 0 2.5.4 2.1 2-.4 1.7-.2 2 1.4 1.5 1.5-.5 1.9-.1 1.9 1.6 0 1.2 1.3 4.4 3 7 3 5 3.7 7.6 4.5 18.9.2 3.6.7 8.5.9 11 .3 2.5.8 13.3 1.1 24 .4 10.7.9 25.1 1.1 32 .6 15.7.5 147.2-.1 156-.2 3.6-.7 14.6-1 24.5-.6 21.3-1.2 37-2.6 67.5-.6 12.4-1.2 29.2-1.4 37.3-.3 8.2-.7 15.2-1 15.8-.4.5-.8 10.6-1 22.4-.2 11.8-.6 21.8-.9 22.3-.2.4-.7 8.9-1 18.9-.7 21.6-2.3 41.8-3.6 45.3-.8 2.2-2.6 18-4.6 41.2l-.6 7.8H1112.1l-.5-3.3c-.3-1.7-1.2-11.3-2.1-21.2-.9-9.9-2-20.3-2.6-23-1.4-7.8-2.9-26.8-3.5-46.7-.3-10-.8-18.6-1-19-.3-.5-.7-10.5-.9-22.3-.2-11.8-.6-21.9-1-22.4-.3-.6-.7-7.6-1-15.8-.2-8.1-.8-24.9-1.4-37.3-1.4-30.5-2-46.2-2.6-67.5-.3-9.9-.8-20.9-1-24.5-.6-8.8-.7-140.3-.1-156 .2-6.9.7-21.3 1.1-32 .3-10.7.8-21.5 1.1-24 .2-2.5.7-7.4.9-11 .8-11.1 1.5-14 4.1-18.1 1.3-2.2 2.7-5.3 3.1-7 .4-2 1-2.8 1.9-2.5.9.3 1.4-.2 1.4-1.4 0-1.3.7-2 2-2 1.1 0 1.9-.5 1.8-1.2-.4-1.4 3.6-3.5 8.2-4.3 1.9-.3 3.9-1 4.5-1.4.5-.5 3.7-.9 7-1 3.3-.1 8.9-.6 12.5-1 3.6-.5 17.8-.9 31.5-1 13.8-.1 30.9-.4 38-.6 7.2-.2 22.7-.7 34.5-1 31.6-.9 46-1.7 66-3.5 6.3-.6 15.3-1.2 20-1.4 4.7-.3 9.2-.7 10-.9.8-.3 5.6-.8 10.5-1.2 11.6-.8 16.1-1.2 21-1.9 2.2-.3 6.3-.8 9-1.1 2.8-.3 8.2-1 12-1.5 3.9-.5 11.1-1.4 16-2 13.7-1.6 23.5-3 29-4.1 2.8-.5 10-1.6 16-2.4 16.3-2.2 35.3-5.2 41.5-6.5 3-.7 7.5-1.6 10-2 2.5-.4 7.2-1.3 10.5-2 3.3-.6 7.4-1.3 9-1.6 1.7-.3 5.7-1.1 9-1.9 3.3-.8 11.4-2.6 18-4 37.2-8.1 70.3-16.1 101.5-24.5 19.7-5.4 28.5-7.9 56-16 35.7-10.5 79-25 106.8-35.6 16.9-6.5 30.1-11.9 34.6-14 2.8-1.3 5.3-2.4 5.8-2.4.7 0 18.5-7.8 34.3-15 8.8-4 48.6-24 54-27 2.2-1.3 7.8-4.3 12.5-6.8 4.7-2.4 9-4.8 9.5-5.2.6-.4 3-1.9 5.5-3.2 2.5-1.4 6.3-3.6 8.5-4.8 13.1-7.6 14-8 19.5-8 3.7 0 7.2.8 10.6 2.4zm-607.3 183.3c-.7.2-1.9.2-2.5 0-.7-.3-.2-.5 1.2-.5s1.9.2 1.3.5zm1205 0c-.7.2-1.9.2-2.5 0-.7-.3-.2-.5 1.2-.5s1.9.2 1.3.5zm-1520.3 282c0 2.1-.3 2.4-.9 1.4-.5-.8-.7-2-.4-2.8.8-2.1 1.3-1.5 1.3 1.4zm1839.3-1.4c.3.8.1 2-.4 2.8-.6 1-.9.7-.9-1.4 0-2.9.5-3.5 1.3-1.4zm-1837.6 33.9c-.3.7-.5.2-.5-1.2s.2-1.9.5-1.3c.2.7.2 1.9 0 2.5zm1835 0c-.3.7-.5.2-.5-1.2s.2-1.9.5-1.3c.2.7.2 1.9 0 2.5zM1294 1744.4c192.8 0 674.5-.3 1070.5-.6 396-.4 722.8-.4 726.3-.2 7.2.7 7.1.5 4.2 10.2-6.3 21.8-12.4 43.9-16.4 59.7-5.9 23.4-17.5 71.3-21.5 88.5-1.1 4.7-2.6 11.2-3.5 14.6-.8 3.4-1.7 7.2-2 8.5-.2 1.3-1.4 6.4-2.5 11.4-1.2 4.9-3.7 16-5.6 24.5-1.9 8.5-5.5 24.5-8 35.5s-6.1 27.2-8.1 36c-1.9 8.8-4.1 18.5-4.9 21.5-.7 3-2.1 9.1-2.9 13.5-1.7 8.5-2.2 10.6-3.5 17-6.9 32.1-10.3 47.7-11.1 51-.5 2.2-2.4 10.5-4 18.5-7.4 35.1-15.4 67-17.1 68.2-.9.6-42.1.7-108.9.3-59.1-.3-497.1-.6-973.3-.7-627-.1-866-.4-866.6-1.2-1.6-2-8.6-33.9-15.7-71.1-12.4-66.1-36-174.8-57.9-267.5-2.5-10.7-5.7-24.5-7.1-30.5-1.3-6.1-3.3-14.2-4.4-18-1.1-3.9-3.1-11.5-4.5-17s-4.3-16.8-6.5-25c-9.2-34.4-11-41.7-11-45v-3.6l7.8.7c4.2.4 165.4.7 358.2.8zm1546.8 522.5c16.7.5 30.6 1.2 30.9 1.5 3 3-69.2 150.6-111.5 228.1-33.8 62-59.9 101.3-128 193-36.2 48.7-46.9 62.4-66.3 85-70 81.7-169.6 178.7-246.4 240.1-69.8 55.8-173.8 123-292.3 188.8l-19.2 10.7-14.8-8.2c-126.9-70.6-230.2-137.5-299.7-194.3-22.1-18.1-89.2-76.5-124-108-61.7-55.8-111.2-111-183.9-204.6-42-54.1-66.9-87.3-79.2-105.5-45.8-68.5-102.8-180-153-299.5l-10.3-24.5 68.7-.6c37.8-.4 226.4-1.2 419.2-1.9 192.8-.6 376.6-1.3 408.5-1.4 141.2-.6 773.9.4 801.3 1.3z" />
    <path
        d="M1767 1895.1c0 .5.5.7 1 .4.6-.3 1-.8 1-1.1 0-.2-.4-.4-1-.4-.5 0-1 .5-1 1.1zM1368 1969v3.1l2.2-2.1c1.9-1.8 2-2.2.8-3-2.4-1.6-3-1.2-3 2zM2437.1 1975.6c0 1.1.3 1.4.6.6.3-.7.2-1.6-.1-1.9-.3-.4-.6.2-.5 1.3zM1368.2 2031c0 1.4.2 1.9.5 1.2.2-.6.2-1.8 0-2.5-.3-.6-.5-.1-.5 1.3zM2371 2098.1c-3.2 1.8-3.2 1.9-.8 1.4 3.6-.7 7.8-2.3 7.8-3 0-1.1-3.7-.3-7 1.6zM1545.8 2104.7c1.2.2 3 .2 4 0 .9-.3-.1-.5-2.3-.4-2.2 0-3 .2-1.7.4z" />
</svg>