<svg xmlns="http://www.w3.org/2000/svg" viewBox="0 0 1024 1024" width="1024pt" height="1024pt"
    xmlns:xlink="http://www.w3.org/1999/xlink">
    <defs>
        <path
            d="M0 0h1024v1024H0V0zm251.56 255.46c-.39 1.51-.8 2.99-.95 4.55-1.9 23.78-1.95 48.11-1.98 71.99-.13 22.43.94 44.63 2.09 67 .2 8.49 1.43 16.96 1.38 25.45-7.57 3.75-15.66 6.88-23.61 9.74-1.49.44-2.93.98-4.38 1.51 3.61 15.9 7.95 31.64 11.81 47.49 4.71 18.91 8.89 37.93 12.9 57 2.53 12.97 4.83 25.98 7.14 38.99 1.09 1.27 2.43 2.13 3.91 2.89 6.27 3.25 12.48 6.13 18.45 10.02 2.7 3.99 4.25 8.97 6.17 13.44 10.94 27.04 24.4 53.02 40.82 77.15 16.06 24.5 34.57 47.05 54.83 68.18 18.07 18.1 36.96 35.29 57.67 50.35 21.31 15.99 43.86 30.28 67.6 42.39 2.76 1.36 5.56 3.03 8.54 3.82 3.67-1 7.05-3.31 10.43-5.04 33.47-17.87 65.04-38.28 93.41-63.59 27.44-23.3 51.76-49.94 73.25-78.77 22.25-30.33 40.7-63.31 54.74-98.22 1.24-3.03 2.39-6.07 3.85-9 6.8-4.35 14.28-7.62 21.2-11.77 1.77-1.13 2.21-4.14 2.7-6.05 8.34-45.49 19.32-90.2 31.59-134.77.16-1.32 1.32-3.68.41-4.75-2.06-.95-4.4-1.38-6.58-2.05-6.27-2.43-12.56-4.89-18.72-7.6-.89-.43-1.78-.87-2.66-1.31-.04-5.48.63-11.01.94-16.5.64-9.01.64-17.83 1.6-26.79 1.38-23.48 1.14-46.69 1.08-70.21-.05-12.88-.09-25.6-1.06-38.46-.75-5.76-.47-11.36-1.81-17.01-8.79.03-17.52 1-26.32.85-17.59-.06-35.5.47-52.99-1.09-38.31-2.89-76.06-9.73-112.52-21.96-20.84-6.96-41.21-15.7-60.38-26.46-4.5-2.45-8.68-5.44-13.18-7.87-1.28.67-2.53 1.41-3.75 2.18-11.7 7.74-24.52 13.95-37.23 19.86-43.33 19.29-89.99 29.73-137.13 33.83-19.94 2-39.82 1.45-59.82 1.5-7.83-.02-15.61-.81-23.44-.91z"
            id="prefix__a" />
        <path
            d="M512.93 199c4.5 2.43 8.68 5.42 13.18 7.87 19.17 10.76 39.54 19.5 60.38 26.46 36.46 12.23 74.21 19.07 112.52 21.96 17.49 1.56 35.4 1.03 52.99 1.09 8.8.15 17.53-.82 26.32-.85 1.34 5.65 1.06 11.25 1.81 17.01.97 12.86 1.01 25.58 1.06 38.46.06 23.52.3 46.73-1.08 70.21-.96 8.96-.96 17.78-1.6 26.79-.31 5.49-.98 11.02-.94 16.5.02 3.23.01 6.47-.03 9.7 5.49.09 10.97.07 16.46.19 1.86.06 3.29-.1 4.95-.98 2.18.67 4.52 1.1 6.58 2.05.91 1.07-.25 3.43-.41 4.75-12.27 44.57-23.25 89.28-31.59 134.77-.49 1.91-.93 4.92-2.7 6.05-5.83.73-11.67.99-17.54 1.24-1.21 3.64-2.1 7.13-3.66 10.53-1.46 2.93-2.61 5.97-3.85 9-14.04 34.91-32.49 67.89-54.74 98.22-21.49 28.83-45.81 55.47-73.25 78.77-28.37 25.31-59.94 45.72-93.41 63.59-3.38 1.73-6.76 4.04-10.43 5.04-2.98-.79-5.78-2.46-8.54-3.82-23.74-12.11-46.29-26.4-67.6-42.39-20.71-15.06-39.6-32.25-57.67-50.35-20.26-21.13-38.77-43.68-54.83-68.18-16.42-24.13-29.88-50.11-40.82-77.15-1.92-4.47-3.47-9.45-6.17-13.44-1.54-3.18-2.1-6.71-3.52-9.91-.5-.43-1.15-.63-1.94-.61-5.89-.27-11.39.18-16.9-2.39-2.31-13.01-4.61-26.02-7.14-38.99-4.01-19.07-8.19-38.09-12.9-57-3.86-15.85-8.2-31.59-11.81-47.49 1.45-.53 2.89-1.07 4.38-1.51 7.78.37 15.6 0 23.39.05-.01-3.27.06-6.53.22-9.79.05-8.49-1.18-16.96-1.38-25.45-1.15-22.37-2.22-44.57-2.09-67 .03-23.88.08-48.21 1.98-71.99.15-1.56.56-3.04.95-4.55 7.83.1 15.61.89 23.44.91 20-.05 39.88.5 59.82-1.5 47.14-4.1 93.8-14.54 137.13-33.83 12.71-5.91 25.53-12.12 37.23-19.86 1.22-.77 2.47-1.51 3.75-2.18zm-250.06 70.2c-2.31 23.78-2.15 46.98-2.08 70.8.16 24.37 1.45 48.67 2.99 72.99.54 7.53 1.19 15.07 2.09 22.57 3.84.09 7.66.14 11.48-.24-1.25-16.8-2.99-33.65-3.52-50.51-.47-9.27-.74-18.54-.99-27.81-.13-24.97-.08-49.94.41-74.91 16.9.53 33.85.31 50.76.26 21.6-.99 43.22-3.2 64.5-7.06 36.69-7.31 73.92-18.4 107.32-35.45 5.74-3.11 12.05-6.02 16.97-10.36 2.72 1.89 5.39 3.81 8.28 5.42 21.11 11.77 44.13 20.65 67.18 27.81 23.7 6.96 48.29 13.03 72.84 15.92 13.9 1.86 27.89 2.99 41.9 3.64 17.7.32 35.45.25 53.15-.12.85 7.54.18 15.27.48 22.85.61 8.33-.26 16.65.09 25-.04 11.81.44 23.64-.21 35.43-.77 15.54-.96 31.05-2.44 46.55-.36 7.7-1.5 15.31-1.76 23.01 3.91.79 7.65.27 11.58-.04.96-7.95 1.64-15.95 2.17-23.95 1.41-23.41 2.75-46.53 2.86-70 .02-23.63.36-48.28-2.16-71.81-19.9-.32-39.87.44-59.77-.47-21.76-1.36-43.54-3.74-64.99-7.69-25.36-4.86-50.34-11.58-74.61-20.43-10.7-4.06-21.13-8.68-31.51-13.49-7.71-3.61-15.08-8.38-23.11-11.24-10.5 4.46-20.22 10.7-30.76 15.14-26.8 12.51-54.71 20.89-83.49 27.41-24.94 5.55-50.06 8.55-75.52 10.25-20 1.03-40.13.34-60.13.53zm20.41 155.03c.47 4 .79 8 1.33 11.99 76.09-.11 152.21.01 228.31-.01 7.33-.32 15.18 1 22.3-.84 6.04-.2 12.28-.18 18.32-.02 5.53 1.55 10.82.78 16.46.9 5.27-.1 10.15.65 15.3-.91 15.38.14 30.76.26 46.15-.09 1.86.45 3.61.99 5.54 1.05 20.3-.06 40.72-.07 61.02 0 1.9-.04 3.62-.6 5.44-1.07 12.22.41 24.49.32 36.7-.04 5.07-13.85 7.16-28.98 7.8-43.66.15-10.2 1.34-20.32 1.25-30.53.06-18.33.31-36.69-.21-55.01-.41-4.6-.4-11.48-5.59-13.4-6.99-2.13-15.15-1.51-22.4-1.69-6.65.14-13.42-.67-19.98.15l-.69-.36c-4.42-1.22-9.34-.71-13.95-1.27-18.6-1.8-37.2-4.31-55.49-8.14-10.87-2.21-21.63-4.91-32.35-7.73-7.42-2.45-15.03-4.17-22.4-6.78-18.44-5.92-36.38-13.28-53.42-22.51-2.34-1.32-4.58-2.7-7.04-3.8-1.04-.43-2.08-.85-3.12-1.26l-.34.16c-2.27.97-4.42 2.07-6.54 3.32-21.83 12.58-45.26 21.62-69.44 28.57-40.37 12.03-82.09 19.01-124.24 19.67-8.01.38-16.27-.18-24.2.98-5.16.75-6.88 6.05-7.04 10.6-1.63 30.7-.69 61.81.83 92.5.6 9.72.54 19.55 1.69 29.23zm-45.85 21.91c1.46 8.24 4.12 16.26 6.07 24.4 5.8 24.4 11.36 48.87 16.27 73.47 1.65 8.16 2.94 16.48 5.21 24.49 9.93.09 19.86.1 29.78.11 146.63.32 293.27-.03 439.89.34 9.7.08 19.43.12 29.14-.02 4.2-15.03 6.91-30.5 10.38-45.71 5.82-25.58 11.33-51.41 18.6-76.63-12.17-.51-24.4-.1-36.58-.22-161.12-.03-322.49.4-483.6.12-11.7-.17-23.46.26-35.16-.35zm61.63 134.71c-2.28.02-4.55.11-6.82.3 6.68 16.2 14.16 32.13 21.63 47.99 2.76 6.03 6.12 11.71 9.73 17.26 10.94 17.56 21.84 34.98 35.24 50.74 13.19 15.69 26.89 31.14 41.86 45.16 8.89 8.77 18.83 16.55 28.4 24.56 11.37 9.44 23.2 18.3 35.37 26.68 13.98 9.52 29.2 17.68 43.87 26.14 1.89 1.07 3.8 2.29 5.84 3.02 1.58-.27 3.08-1.27 4.47-2.03 9.42-5.62 19.03-10.94 28.44-16.58a968.28 968.28 0 0027.14-17.86c14.28-10.16 28.01-21.25 41.04-32.96 14.22-13.78 28.15-27.92 41.38-42.65 9.84-11.89 19.13-24.27 28.16-36.79 9-12.28 16.46-25.89 23.8-39.22 8.46-15.27 15.71-30.89 23.57-46.46 1.26-2.45 2.31-4.99 3.26-7.58-5.19-1.39-10.21.25-15.78-.12-12.9-.74-25.75-.4-38.66-.47-18.34-.07-36.67.17-55-.09-34.33-.01-68.67.04-103 0-22 .26-44-.11-66 .26-28.67-.1-57.33.09-86 .01-5.34.06-10.65.69-16 .61-18.65-.17-37.29.17-55.94.08z"
            id="prefix__b" />
        <path
            d="M512.77 215.87c-.01 4.53-.09 9.08.03 13.61-4.92 4.34-11.23 7.25-16.97 10.36-33.4 17.05-70.63 28.14-107.32 35.45-21.28 3.86-42.9 6.07-64.5 7.06-16.91.05-33.86.27-50.76-.26-.49 24.97-.54 49.94-.41 74.91.25 9.27.52 18.54.99 27.81.53 16.86 2.27 33.71 3.52 50.51-3.82.38-7.64.33-11.48.24-.9-7.5-1.55-15.04-2.09-22.57-1.54-24.32-2.83-48.62-2.99-72.99-.07-23.82-.23-47.02 2.08-70.8 20-.19 40.13.5 60.13-.53 25.46-1.7 50.58-4.7 75.52-10.25 28.78-6.52 56.69-14.9 83.49-27.41 10.54-4.44 20.26-10.68 30.76-15.14z"
            id="prefix__c" />
        <path
            d="M512.77 215.87c8.03 2.86 15.4 7.63 23.11 11.24 10.38 4.81 20.81 9.43 31.51 13.49 24.27 8.85 49.25 15.57 74.61 20.43 21.45 3.95 43.23 6.33 64.99 7.69 19.9.91 39.87.15 59.77.47 2.52 23.53 2.18 48.18 2.16 71.81-.11 23.47-1.45 46.59-2.86 70-.53 8-1.21 16-2.17 23.95-3.93.31-7.67.83-11.58.04.26-7.7 1.4-15.31 1.76-23.01 1.48-15.5 1.67-31.01 2.44-46.55.65-11.79.17-23.62.21-35.43-.35-8.35.52-16.67-.09-25-.3-7.58.37-15.31-.48-22.85-17.7.37-35.45.44-53.15.12-14.01-.65-28-1.78-41.9-3.64-24.55-2.89-49.14-8.96-72.84-15.92-23.05-7.16-46.07-16.04-67.18-27.81-2.89-1.61-5.56-3.53-8.28-5.42-.12-4.53-.04-9.08-.03-13.61z"
            id="prefix__d" />
        <path
            d="M512.22 239.36l.34-.16c.14 3.28.35 6.52.37 9.8-.01 58.41 0 116.82-.01 175.23-4.98 0-9.95.01-14.93-.01-5.97-15.88-11.98-31.75-17.84-47.67 5.92-3.92 11.87-7.82 17.73-11.84-19.35-.04-38.72-.07-58.06.01l-.84.48c-.59.38-1.17.77-1.75 1.18 5.69 3.81 11.53 7.43 17.06 11.47-5.77 15.47-11.63 30.92-17.37 46.41-3.5.02-7-.03-10.49-.13.07-31.73.03-63.46.02-95.2-19.66.06-39.37-.15-59.02.11l-.63.3-1.75 1.07c-.19 31.24-.03 62.57-.08 93.82-3.32.01-6.65 0-9.97-.01-5.97-15.88-11.98-31.74-17.84-47.66 5.93-3.93 11.87-7.83 17.74-11.85-19.35-.04-38.73-.07-58.07.01l-.84.48c-.59.38-1.17.77-1.75 1.17 5.69 3.82 11.53 7.44 17.06 11.47-5.77 15.48-11.62 30.93-17.37 46.42-3.55-.01-7.1-.05-10.65-.03-1.15-9.68-1.09-19.51-1.69-29.23-1.52-30.69-2.46-61.8-.83-92.5.16-4.55 1.88-9.85 7.04-10.6 7.93-1.16 16.19-.6 24.2-.98 42.15-.66 83.87-7.64 124.24-19.67 24.18-6.95 47.61-15.99 69.44-28.57 2.12-1.25 4.27-2.35 6.54-3.32zm-145.48 53.97c-2.47 1.29-1.57 3.35-1.81 5.67.08 6.37-.02 12.74.08 19.12 18.66.09 37.34-.02 56.01.05 1.7.06 3.17-.49 4.74-1.04l.73-.22c-.07-7.92.01-15.83-.05-23.75-3.97.07-8.1-.26-12.02.26l-1.67 1.25c-.15 3.47-.05 6.95-.09 10.42-3.34.01-6.67.01-10.01-.01-.02-3.97-.01-7.94-.01-11.9-4.06 0-8.03-.19-12.09.15-.68.5-1.2 1.08-1.56 1.75-.35 3.3-.1 6.69-.12 10.01-3.35.01-6.69.01-10.04-.01-.01-3.97-.01-7.94-.01-11.91-4.09.02-8.01-.18-12.08.16zm-71.16 35.7l-.35.28-1.73 1.4c-.04 7.74-.06 15.5.04 23.24 18.73.02 37.81-.03 56.49.03 1.35-.06 2.67-.39 3.97-1.01l1.02-.38c-.07-7.89-.01-15.77-.04-23.65-3.97.07-8.15-.34-12.06.32l-1.72 1.18c-.13 3.47-.03 6.95-.04 10.42-3.34 0-6.67 0-10-.01-.01-3.97-.01-7.94-.02-11.9-4.05-.02-7.91-.19-11.93.2l-.25.16c-.56.39-1.12.79-1.67 1.19.01 3.45 0 6.9.01 10.36-3.32 0-6.65 0-9.97-.02.01-3.96.01-7.93-.01-11.89-3.92-.06-7.83-.07-11.74.08zm143 .01l-.34.27-1.74 1.4c-.04 7.74-.06 15.5.05 23.24 17.15.02 34.3-.01 51.45.02 3.19-.05 6.02.47 9-1l.97-.36c0-7.89.01-15.78-.01-23.67-3.97.06-8.15-.32-12.07.3l-1.72 1.2c-.14 3.47-.04 6.95-.05 10.42-3.32 0-6.64 0-9.96-.01 0-3.97 0-7.94-.01-11.9-4.06-.02-7.92-.19-11.95.2l-.25.16c-.56.39-1.11.79-1.67 1.19.02 3.45 0 6.9.02 10.36-3.34 0-6.67 0-10-.02 0-3.96 0-7.93-.01-11.89-3.91-.06-7.81-.07-11.71.09z"
            id="prefix__e" />
        <path
            d="M512.56 239.2c1.04.41 2.08.83 3.12 1.26 2.46 1.1 4.7 2.48 7.04 3.8 17.04 9.23 34.98 16.59 53.42 22.51 7.37 2.61 14.98 4.33 22.4 6.78-9.65 3.32-19.01 6.72-27.58 12.39-2.3 1.58-5.93 3.43-6.25 6.5-1.31 6.65-2.61 13.34-3.37 20.07 12.34-.02 25.51.69 37.34 4.47 9.19-5.18 18.22-10.44 28.09-14.27 1.9-6.91 2.34-14.39 4.12-21.43 18.29 3.83 36.89 6.34 55.49 8.14 4.61.56 9.53.05 13.95 1.27l-.65.98c3.83 5.98 4.89 12.06 10.84 15.8 8.89 5.97 17.48 12.25 25.06 19.84-6.52-16-20.03-27.59-34.56-36.26 6.56-.82 13.33-.01 19.98-.15 7.25.18 15.41-.44 22.4 1.69 5.19 1.92 5.18 8.8 5.59 13.4.52 18.32.27 36.68.21 55.01.09 10.21-1.1 20.33-1.25 30.53-3.53-4.15-7.39-7.74-10.13-12.52-7.5 5.53-14.83 11.19-22.89 15.91-1.96 1.2-2.55 1.7-2.7 4.08-1.18 12.54-5.24 24.22-10.17 35.72l1.39.51c-1.82.47-3.54 1.03-5.44 1.07-20.3-.07-40.72-.06-61.02 0-1.93-.06-3.68-.6-5.54-1.05 4.26-.33 7.79-4.51 10.83-7.21.55-4.24-.43-8.74-.55-13.03-.57-8.09-.44-16.24-1.18-24.33-13.67-6.03-26.66-14.11-40.58-19.42-11.5 5.49-22.45 12.99-33.32 19.69.52 11.04 2.19 22.27 5.41 32.86.69 2.69 2.5 4.03 4.77 5.36 3.07 1.75 5.62 4.11 8.47 6.17-5.15 1.56-10.03.81-15.3.91-5.64-.12-10.93.65-16.46-.9 1.72-.48 3.15-1.09 4.49-2.27 2.39-2.03 5.05-3.77 7.3-5.95.25-1.93-.43-4.06-.87-5.94-2.32-8.9-3.44-18.02-3.67-27.21-.16-1.16.09-2.91-1.01-3.66-8.94-6.97-18.58-14.96-24.81-24.54-5.26 5.14-10.42 10.41-15.21 15.99-1.19 1.39-1.57 2.34-1.37 4.21 1.06 13.03 4.25 26.02 9.72 37.91 2.05 3.9 3.99 8.32 7.11 11.48-7.12 1.84-14.97.52-22.3.84v-11.98c.01-58.41 0-116.82.01-175.23-.02-3.28-.23-6.52-.37-9.8zm4.76 135.36c5.39-5.99 10.93-11.54 16.78-17.05 1.47-8.8 4.05-17.19 8.41-25.01 2.89-5.34 6.65-9.99 10.06-14.97 1.51-2 1.27-4.59 1.64-7.04.44-5.16 1.47-10.25 1.96-15.4-10.24 7.45-18.72 17.05-25.04 28.02-5.92 10.56-11.15 20.68-12.85 32.86-.71 6.16-.68 12.41-.96 18.59zm85.99-51.04c-.03 6.84.44 13.65.25 20.5.21 6.65.56 13.27.65 19.93 1.33 1.27 3.34 1.94 5 2.67 8.23 3.31 15.85 7.51 23.8 11.38 3.31 1.64 6.42 3.52 9.97 4.63 10.81-6.54 22.77-11.65 34.42-16.5.28-7.07-.17-14.11-1.03-21.13-.65-5.15-1.09-10.67-2.83-15.58-.73-2.57-3.35-4.07-5.34-5.65-9.27-6.79-20.65-13.48-32.22-14.86-6.77-.06-13.74 3.17-19.59 6.35-4.6 2.59-9.18 4.6-13.08 8.26zm77.2.45c2.91 14.19 4.77 28.45 4.64 42.95 1.3 1.85 3.67 3.03 5.38 4.51 6.83 5.56 13.6 11.16 19.73 17.49 6.73-3.69 12.76-8.32 19.17-12.52 1.96-1.51 4.95-3.01 6.01-5.3.69-9.63-.99-18.55-2.94-27.92-1.54-6.67-3.96-12.85-9.13-17.55-4.95-4.38-10.5-8.49-16.22-11.78-1.53-.74-3.16-2.04-4.93-1.43-4.9 1.53-9.54 4.38-14.08 6.75-2.7 1.39-5.22 2.95-7.63 4.8z"
            id="prefix__f" />
        <path
            d="M598.54 273.55c10.72 2.82 21.48 5.52 32.35 7.73-1.78 7.04-2.22 14.52-4.12 21.43-9.87 3.83-18.9 9.09-28.09 14.27-11.83-3.78-25-4.49-37.34-4.47.76-6.73 2.06-13.42 3.37-20.07.32-3.07 3.95-4.92 6.25-6.5 8.57-5.67 17.93-9.07 27.58-12.39z"
            id="prefix__g" />
        <path
            d="M700.33 290.69l.69.36c14.53 8.67 28.04 20.26 34.56 36.26-7.58-7.59-16.17-13.87-25.06-19.84-5.95-3.74-7.01-9.82-10.84-15.8l.65-.98z"
            id="prefix__h" />
        <path
            d="M378.82 293.17c0 3.97 0 7.94.01 11.91 3.35.02 6.69.02 10.04.01l1.85-.01c.03-3.92.07-7.83-.17-11.75 4.06-.34 8.03-.15 12.09-.15 0 3.96-.01 7.93.01 11.9 3.34.02 6.67.02 10.01.01h1.88c.05-3.89.06-7.78-.12-11.67 3.92-.52 8.05-.19 12.02-.26.06 7.92-.02 15.83.05 23.75l-.73.22c-19.61-.27-39.23-.01-58.85-.14-.1-7.88.18-15.79-.17-23.66 4.07-.34 7.99-.14 12.08-.16z"
            id="prefix__i" />
        <path
            d="M366.74 293.33c.35 7.87.07 15.78.17 23.66 19.62.13 39.24-.13 58.85.14-1.57.55-3.04 1.1-4.74 1.04-18.67-.07-37.35.04-56.01-.05-.1-6.38 0-12.75-.08-19.12.24-2.32-.66-4.38 1.81-5.67z"
            id="prefix__j" />
        <path d="M390.55 293.33c.24 3.92.2 7.83.17 11.75l-1.85.01c.02-3.32-.23-6.71.12-10.01.36-.67.88-1.25 1.56-1.75z"
            id="prefix__k" />
        <path d="M412.75 294.67l1.67-1.25c.18 3.89.17 7.78.12 11.67h-1.88c.04-3.47-.06-6.95.09-10.42z" id="prefix__l" />
        <path
            d="M556.17 295.09c-.49 5.15-1.52 10.24-1.96 15.4-.37 2.45-.13 5.04-1.64 7.04-3.41 4.98-7.17 9.63-10.06 14.97-4.36 7.82-6.94 16.21-8.41 25.01-5.85 5.51-11.39 11.06-16.78 17.05.28-6.18.25-12.43.96-18.59 1.7-12.18 6.93-22.3 12.85-32.86 6.32-10.97 14.8-20.57 25.04-28.02z"
            id="prefix__m" />
        <path
            d="M635.98 308.91c11.57 1.38 22.95 8.07 32.22 14.86 1.99 1.58 4.61 3.08 5.34 5.65 1.74 4.91 2.18 10.43 2.83 15.58.86 7.02 1.31 14.06 1.03 21.13-11.65 4.85-23.61 9.96-34.42 16.5-3.55-1.11-6.66-2.99-9.97-4.63-7.95-3.87-15.57-8.07-23.8-11.38-1.66-.73-3.67-1.4-5-2.67-.09-6.66-.44-13.28-.65-19.93.19-6.85-.28-13.66-.25-20.5 3.9-3.66 8.48-5.67 13.08-8.26 5.85-3.18 12.82-6.41 19.59-6.35z"
            id="prefix__n" />
        <path
            d="M702.22 312.42c1.77-.61 3.4.69 4.93 1.43 5.72 3.29 11.27 7.4 16.22 11.78 5.17 4.7 7.59 10.88 9.13 17.55 1.95 9.37 3.63 18.29 2.94 27.92-1.06 2.29-4.05 3.79-6.01 5.3-6.41 4.2-12.44 8.83-19.17 12.52-6.13-6.33-12.9-11.93-19.73-17.49-1.71-1.48-4.08-2.66-5.38-4.51.13-14.5-1.73-28.76-4.64-42.95 2.41-1.85 4.93-3.41 7.63-4.8 4.54-2.37 9.18-5.22 14.08-6.75z"
            id="prefix__o" />
        <path
            d="M295.58 329.03c3.91-.15 7.82-.14 11.74-.08.02 3.96.02 7.93.01 11.89 3.32.02 6.65.02 9.97.02.63-.01 1.26-.01 1.9-.01 0-3.9-.02-7.8.01-11.7 4.02-.39 7.88-.22 11.93-.2.01 3.96.01 7.93.02 11.9 3.33.01 6.66.01 10 .01h1.89c.05-3.87.05-7.73-.13-11.6 3.91-.66 8.09-.25 12.06-.32.03 7.88-.03 15.76.04 23.65l-1.02.38c-19.52-.43-39.09-.06-58.63-.2-.07-7.81.16-15.65-.14-23.46l.35-.28z"
            id="prefix__p" />
        <path
            d="M318.96 329.31l.25-.16c-.03 3.9-.01 7.8-.01 11.7-.64 0-1.27 0-1.9.01-.01-3.46 0-6.91-.01-10.36.55-.4 1.11-.8 1.67-1.19z"
            id="prefix__q" />
        <path
            d="M367.43 329.04c19.65-.26 39.36-.05 59.02-.11.01 31.74.05 63.47-.02 95.2 3.49.1 6.99.15 10.49.13l1.31-.05c6.29-15.69 11.89-31.73 18.02-47.5-5.66-3.96-11.45-7.78-17.27-11.51l.84-.48c19.34-.08 38.71-.05 58.06-.01-5.86 4.02-11.81 7.92-17.73 11.84 5.86 15.92 11.87 31.79 17.84 47.67 4.98.02 9.95.01 14.93.01v11.98c-76.1.02-152.22-.1-228.31.01-.54-3.99-.86-7.99-1.33-11.99 3.55-.02 7.1.02 10.65.03l1.31-.03c6.29-15.71 11.9-31.75 18.02-47.54a550.17 550.17 0 00-17.27-11.49l.84-.48c19.34-.08 38.72-.05 58.07-.01-5.87 4.02-11.81 7.92-17.74 11.85 5.86 15.92 11.87 31.78 17.84 47.66 3.32.01 6.65.02 9.97.01l1.93-.01c-.06-31.62.14-63.26-.1-94.88l.63-.3zm23.33 11.82v1.17c0 7.55-.03 15.1.02 22.65 3.33 0 6.66 0 9.98.01h1.85c.02-7.94.01-15.88.01-23.82-3.95-.03-7.91-.03-11.86-.01zm-.98 37.1c-6.36 2.69-10.85 9.08-10.93 16.03-.08 10.07-.01 20.15-.01 30.23 11.29.02 22.58.01 33.87 0h1.85c-.04-10.09.07-20.18-.04-30.26-.11-6.29-3.78-12.21-9.3-15.18-4.75-2.62-10.43-2.82-15.44-.82zm-65.84 12.26c-5.54 11.32-11.06 22.65-16.56 33.99 11.05.04 22.11.01 33.16.02.83-.01 1.65-.01 2.48-.01-5.93-12.15-11.82-24.32-17.79-36.45-.43.82-.86 1.63-1.29 2.45zm142.99.01c-5.54 11.32-11.06 22.65-16.57 33.98 11.06.04 22.11.01 33.17.02.82 0 1.65-.01 2.47-.01-5.91-12.15-11.82-24.31-17.78-36.44-.43.81-.86 1.63-1.29 2.45z"
            id="prefix__r" />
        <path
            d="M438.58 329.04c3.9-.16 7.8-.15 11.71-.09.01 3.96.01 7.93.01 11.89 3.33.02 6.66.02 10 .02.63-.01 1.26-.01 1.89-.01.01-3.9-.01-7.8.01-11.7 4.03-.39 7.89-.22 11.95-.2.01 3.96.01 7.93.01 11.9 3.32.01 6.64.01 9.96.01l1.9-.01c.06-3.87.05-7.74-.13-11.61 3.92-.62 8.1-.24 12.07-.3.02 7.89.01 15.78.01 23.67l-.97.36c-19.52-.43-39.09-.06-58.62-.2-.08-7.82.15-15.65-.14-23.46l.34-.27z"
            id="prefix__s" />
        <path
            d="M461.95 329.31l.25-.16c-.02 3.9 0 7.8-.01 11.7-.63 0-1.26 0-1.89.01-.02-3.46 0-6.91-.02-10.36.56-.4 1.11-.8 1.67-1.19z"
            id="prefix__t" />
        <path
            d="M295.23 329.31c.3 7.81.07 15.65.14 23.46 19.54.14 39.11-.23 58.63.2-1.3.62-2.62.95-3.97 1.01-18.68-.06-37.76-.01-56.49-.03-.1-7.74-.08-15.5-.04-23.24l1.73-1.4z"
            id="prefix__u" />
        <path d="M341.2 330.44l1.72-1.18c.18 3.87.18 7.73.13 11.6h-1.89c.01-3.47-.09-6.95.04-10.42z" id="prefix__v" />
        <path d="M365.05 330.41l1.75-1.07c.24 31.62.04 63.26.1 94.88l-1.93.01c.05-31.25-.11-62.58.08-93.82z"
            id="prefix__w" />
        <path
            d="M438.24 329.31c.29 7.81.06 15.64.14 23.46 19.53.14 39.1-.23 58.62.2-2.98 1.47-5.81.95-9 1-17.15-.03-34.3 0-51.45-.02-.11-7.74-.09-15.5-.05-23.24l1.74-1.4z"
            id="prefix__x" />
        <path d="M484.17 330.44l1.72-1.2c.18 3.87.19 7.74.13 11.61l-1.9.01c.01-3.47-.09-6.95.05-10.42z"
            id="prefix__y" />
        <path
            d="M390.76 340.86c3.95-.02 7.91-.02 11.86.01 0 7.94.01 15.88-.01 23.82h-1.85c-.04-7.54 0-15.08-.01-22.62-3.33-.04-6.66-.05-9.99-.04v-1.17z"
            id="prefix__z" />
        <path
            d="M390.76 342.03c3.33-.01 6.66 0 9.99.04.01 7.54-.03 15.08.01 22.62-3.32-.01-6.65-.01-9.98-.01-.05-7.55-.02-15.1-.02-22.65z"
            id="prefix__A" />
        <path
            d="M294.24 366.37c.58-.4 1.16-.79 1.75-1.17a550.17 550.17 0 0117.27 11.49c-6.12 15.79-11.73 31.83-18.02 47.54l-1.31.03c5.75-15.49 11.6-30.94 17.37-46.42-5.53-4.03-11.37-7.65-17.06-11.47z"
            id="prefix__B" />
        <path
            d="M437.23 366.38c.58-.41 1.16-.8 1.75-1.18 5.82 3.73 11.61 7.55 17.27 11.51-6.13 15.77-11.73 31.81-18.02 47.5l-1.31.05c5.74-15.49 11.6-30.94 17.37-46.41-5.53-4.04-11.37-7.66-17.06-11.47z"
            id="prefix__C" />
        <path
            d="M534.97 365.78c6.23 9.58 15.87 17.57 24.81 24.54 1.1.75.85 2.5 1.01 3.66.23 9.19 1.35 18.31 3.67 27.21.44 1.88 1.12 4.01.87 5.94-2.25 2.18-4.91 3.92-7.3 5.95-1.34 1.18-2.77 1.79-4.49 2.27-6.04-.16-12.28-.18-18.32.02-3.12-3.16-5.06-7.58-7.11-11.48-5.47-11.89-8.66-24.88-9.72-37.91-.2-1.87.18-2.82 1.37-4.21 4.79-5.58 9.95-10.85 15.21-15.99z"
            id="prefix__D" />
        <path
            d="M599.97 371.26c13.92 5.31 26.91 13.39 40.58 19.42.74 8.09.61 16.24 1.18 24.33.12 4.29 1.1 8.79.55 13.03-3.04 2.7-6.57 6.88-10.83 7.21-15.39.35-30.77.23-46.15.09-2.85-2.06-5.4-4.42-8.47-6.17-2.27-1.33-4.08-2.67-4.77-5.36-3.22-10.59-4.89-21.82-5.41-32.86 10.87-6.7 21.82-14.2 33.32-19.69z"
            id="prefix__E" />
        <path
            d="M405.22 378.78c5.52 2.97 9.19 8.89 9.3 15.18.11 10.08 0 20.17.04 30.26h-1.85c-.12-9.75.09-19.51-.08-29.26-.18-6.84-4.51-13.11-10.8-15.77-3.83-1.74-7.95-1.44-12.05-1.23 5.01-2 10.69-1.8 15.44.82z"
            id="prefix__F" />
        <path
            d="M389.78 377.96c4.1-.21 8.22-.51 12.05 1.23 6.29 2.66 10.62 8.93 10.8 15.77.17 9.75-.04 19.51.08 29.26-11.29.01-22.58.02-33.87 0 0-10.08-.07-20.16.01-30.23.08-6.95 4.57-13.34 10.93-16.03z"
            id="prefix__G" />
        <path
            d="M737.82 379.01c2.74 4.78 6.6 8.37 10.13 12.52-.64 14.68-2.73 29.81-7.8 43.66-12.21.36-24.48.45-36.7.04l-1.39-.51c4.93-11.5 8.99-23.18 10.17-35.72.15-2.38.74-2.88 2.7-4.08 8.06-4.72 15.39-10.38 22.89-15.91z"
            id="prefix__H" />
        <path
            d="M325.23 387.77c5.97 12.13 11.86 24.3 17.79 36.45-.83 0-1.65 0-2.48.01-5.47-11.36-10.98-22.72-16.6-34.01.43-.82.86-1.63 1.29-2.45z"
            id="prefix__I" />
        <path
            d="M468.22 387.78c5.96 12.13 11.87 24.29 17.78 36.44-.82 0-1.65.01-2.47.01-5.47-11.36-10.98-22.72-16.6-34 .43-.82.86-1.64 1.29-2.45z"
            id="prefix__J" />
        <path
            d="M323.94 390.22c5.62 11.29 11.13 22.65 16.6 34.01-11.05-.01-22.11.02-33.16-.02 5.5-11.34 11.02-22.67 16.56-33.99z"
            id="prefix__K" />
        <path
            d="M466.93 390.23c5.62 11.28 11.13 22.64 16.6 34-11.06-.01-22.11.02-33.17-.02 5.51-11.33 11.03-22.66 16.57-33.98z"
            id="prefix__L" />
        <path d="M252.1 424.45c-.16 3.26-.23 6.52-.22 9.79-7.79-.05-15.61.32-23.39-.05 7.95-2.86 16.04-5.99 23.61-9.74z"
            id="prefix__M" />
        <path
            d="M777.57 424.5c.88.44 1.77.88 2.66 1.31 6.16 2.71 12.45 5.17 18.72 7.6-1.66.88-3.09 1.04-4.95.98-5.49-.12-10.97-.1-16.46-.19.04-3.23.05-6.47.03-9.7z"
            id="prefix__N" />
        <path
            d="M237.43 446.14c11.7.61 23.46.18 35.16.35 2.69 15.47 5 30.98 7.36 46.5 4.31 25.28 8.62 50.72 14.81 75.62-9.92-.01-19.85-.02-29.78-.11-2.27-8.01-3.56-16.33-5.21-24.49-4.91-24.6-10.47-49.07-16.27-73.47-1.95-8.14-4.61-16.16-6.07-24.4z"
            id="prefix__O" />
        <path
            d="M756.19 446.37c-1.4 14.87-4.16 29.65-6.55 44.4-1.9 12.15-4.52 24.16-6.34 36.32-2.43 14.04-5.83 27.91-8.65 41.86-146.62-.37-293.26-.02-439.89-.34-6.19-24.9-10.5-50.34-14.81-75.62-2.36-15.52-4.67-31.03-7.36-46.5 161.11.28 322.48-.15 483.6-.12zm-212.02 20.86c-5.26 1.73-5.54 9.76-.66 12.12 4.14 1.85 8.69-.75 8.95-5.32.47-4.8-3.67-8.26-8.29-6.8zm108.3 17.37c-6.69 1.57-12.78 5.55-16.57 11.33-7.45 11.21-5.85 27.79 4.41 36.77 11.24 9.98 30.34 9.36 40.58-1.81 9.75-10.44 9.65-28.21-.26-38.51-7.23-7.61-18.08-10.04-28.16-7.78zm43.1 39.52c-1.34 3.14-2.7 6.27-4.07 9.39 6.96 4.93 16.14 6.7 24.53 6.08 5.91-.48 12.28-2.66 15.86-7.67 4.2-5.81 3.98-15.23-2.11-19.7-6.09-4.71-15.94-4.86-22.71-8.2-2.9-1.36-3.3-4.98-1.38-7.35 2.21-2.61 6.15-2.85 9.32-2.82 4.99.1 9.45 1.87 13.8 4.16 1.23-3.16 2.46-6.31 3.71-9.47-7.57-4.46-16.76-5.66-25.33-4.04-5.49 1.18-10.8 4.21-13.21 9.5-2.58 5.78-1.83 13.46 3.52 17.47 5.5 4.3 14.25 4.96 20.7 7.39 1.59.64 3.09 1.49 4.06 2.95 1.1 2.06.38 4.65-1.51 5.98-2.37 1.73-5.91 1.93-8.74 1.87-5.96-.17-11.52-2.26-16.44-5.54zm-399.12 14.69c3.99.01 7.97.01 11.95 0 0-4.57-.01-9.14.01-13.71 2.32-2.5 4.64-5.01 6.95-7.52 5.57 7.06 11.08 14.17 16.64 21.24 4.67-.01 9.34 0 14-.01-7.58-10-15.18-19.99-22.76-29.98 7.15-8.05 14.34-16.06 21.49-24.1-4.29.08-8.62-.19-12.91.09-1.05.24-1.88 1.6-2.67 2.32-6.87 7.65-13.83 15.21-20.74 22.82-.02-8.41 0-16.82-.02-25.23-3.97-.01-7.95-.01-11.92 0-.04 18.02 0 36.05-.02 54.08zm54.49-54.08c-.02 18.02-.01 36.04-.01 54.05 11.4.02 22.8.01 34.19.01.01-3.39.01-6.78 0-10.17-7.8-.04-15.6.05-23.39-.05.04-14.61 0-29.23.01-43.84-3.6-.01-7.2-.01-10.8 0zm38.78 54.08c4.11.03 8.21.03 12.31 0 1.53-3.86 3.07-7.72 4.58-11.59 8.05-.03 16.09-.02 24.14-.01 1.53 3.87 3.06 7.73 4.58 11.59 4.21.02 8.41.02 12.62.01-7.72-18.03-15.48-36.04-23.2-54.07-3.95 0-7.9-.09-11.84.03-7.83 17.95-15.45 36.04-23.19 54.04zm62.1-54.08c-.01 18.03-.01 36.06 0 54.08 4.01.01 8.01.01 12.01 0v-54.08c-4-.01-8.01-.01-12.01 0zm22.78 0c-.01 18.03-.01 36.06 0 54.09 4 0 8.01 0 12.01-.01 0-4.97-.01-9.95.01-14.92 8.55-.24 17.07 1.2 24.68-3.6 9.18-5.47 10.8-19.05 4.86-27.43-4.21-5.73-11.27-8-18.16-8.11-7.79-.07-15.6-.01-23.4-.02zm52.01 0c-.01 18.03-.01 36.06 0 54.09 13.4-.01 26.8 0 40.2-.01.01-3.34.01-6.69 0-10.03-9.42-.02-18.84-.01-28.25 0-.02-4.19-.02-8.37-.01-12.55 8.04.01 16.08.02 24.11 0 0-3.24 0-6.48-.01-9.72-8.04.01-16.07.02-24.1 0-.01-3.92-.01-7.83 0-11.74 9.1-.01 18.2 0 27.3 0v-10.04c-13.08-.01-26.16-.01-39.24 0zm48.22 0c-.01 18.03-.01 36.06 0 54.08 8.07-.01 16.14.04 24.2-.01 7.47-.08 14.73-2.34 20.22-7.55 8.59-7.91 9.94-22.24 4.92-32.4-4.41-8.76-13.59-13.54-23.17-14.03-8.71-.23-17.45-.03-26.17-.09z"
            id="prefix__P" />
        <path
            d="M756.19 446.37c12.18.12 24.41-.29 36.58.22-7.27 25.22-12.78 51.05-18.6 76.63-3.47 15.21-6.18 30.68-10.38 45.71-9.71.14-19.44.1-29.14.02 2.82-13.95 6.22-27.82 8.65-41.86 1.82-12.16 4.44-24.17 6.34-36.32 2.39-14.75 5.15-29.53 6.55-44.4z"
            id="prefix__Q" />
        <path d="M544.17 467.23c4.62-1.46 8.76 2 8.29 6.8-.26 4.57-4.81 7.17-8.95 5.32-4.88-2.36-4.6-10.39.66-12.12z"
            id="prefix__R" />
        <path
            d="M652.47 484.6c10.08-2.26 20.93.17 28.16 7.78 9.91 10.3 10.01 28.07.26 38.51-10.24 11.17-29.34 11.79-40.58 1.81-10.26-8.98-11.86-25.56-4.41-36.77 3.79-5.78 9.88-9.76 16.57-11.33zm1.03 11.02c-10.58 4.18-12.95 18.76-6.46 27.35 4.92 6.57 14.69 7.98 21.49 3.56 10.72-6.93 9.76-25.73-2.31-30.77-3.91-1.7-8.77-1.72-12.72-.14z"
            id="prefix__S" />
        <path
            d="M707.19 484.5c8.57-1.62 17.76-.42 25.33 4.04-1.25 3.16-2.48 6.31-3.71 9.47-4.35-2.29-8.81-4.06-13.8-4.16-3.17-.03-7.11.21-9.32 2.82-1.92 2.37-1.52 5.99 1.38 7.35 6.77 3.34 16.62 3.49 22.71 8.2 6.09 4.47 6.31 13.89 2.11 19.7-3.58 5.01-9.95 7.19-15.86 7.67-8.39.62-17.57-1.15-24.53-6.08 1.37-3.12 2.73-6.25 4.07-9.39 4.92 3.28 10.48 5.37 16.44 5.54 2.83.06 6.37-.14 8.74-1.87 1.89-1.33 2.61-3.92 1.51-5.98-.97-1.46-2.47-2.31-4.06-2.95-6.45-2.43-15.2-3.09-20.7-7.39-5.35-4.01-6.1-11.69-3.52-17.47 2.41-5.29 7.72-8.32 13.21-9.5z"
            id="prefix__T" />
        <path
            d="M296.47 484.73c3.97-.01 7.95-.01 11.92 0 .02 8.41 0 16.82.02 25.23 6.91-7.61 13.87-15.17 20.74-22.82.79-.72 1.62-2.08 2.67-2.32 4.29-.28 8.62-.01 12.91-.09-7.15 8.04-14.34 16.05-21.49 24.1 7.58 9.99 15.18 19.98 22.76 29.98-4.66.01-9.33 0-14 .01-5.56-7.07-11.07-14.18-16.64-21.24-2.31 2.51-4.63 5.02-6.95 7.52-.02 4.57-.01 9.14-.01 13.71-3.98.01-7.96.01-11.95 0 .02-18.03-.02-36.06.02-54.08z"
            id="prefix__U" />
        <path
            d="M350.94 484.73c3.6-.01 7.2-.01 10.8 0-.01 14.61.03 29.23-.01 43.84 7.79.1 15.59.01 23.39.05.01 3.39.01 6.78 0 10.17-11.39 0-22.79.01-34.19-.01 0-18.01-.01-36.03.01-54.05z"
            id="prefix__V" />
        <path
            d="M412.91 484.77c3.94-.12 7.89-.03 11.84-.03 7.72 18.03 15.48 36.04 23.2 54.07-4.21.01-8.41.01-12.62-.01-1.52-3.86-3.05-7.72-4.58-11.59-8.05-.01-16.09-.02-24.14.01-1.51 3.87-3.05 7.73-4.58 11.59-4.1.03-8.2.03-12.31 0 7.74-18 15.36-36.09 23.19-54.04zm-2.43 32.93c5.49.02 10.98.01 16.47.01-2.72-6.89-5.48-13.77-8.22-20.66-2.78 6.87-5.48 13.78-8.25 20.65z"
            id="prefix__W" />
        <path d="M451.82 484.73c4-.01 8.01-.01 12.01 0v54.08c-4 .01-8 .01-12.01 0-.01-18.02-.01-36.05 0-54.08z"
            id="prefix__X" />
        <path
            d="M474.6 484.73c7.8.01 15.61-.05 23.4.02 6.89.11 13.95 2.38 18.16 8.11 5.94 8.38 4.32 21.96-4.86 27.43-7.61 4.8-16.13 3.36-24.68 3.6-.02 4.97-.01 9.95-.01 14.92-4 .01-8.01.01-12.01.01-.01-18.03-.01-36.06 0-54.09zm12.02 10.17c-.03 6.25.03 12.5-.04 18.75 5.1-.15 11.18.82 15.98-1.08 5.04-2.11 5.98-8.49 3.85-13-1.49-2.78-4.34-4.14-7.37-4.49-4.11-.4-8.29-.12-12.42-.18z"
            id="prefix__Y" />
        <path
            d="M526.61 484.73c13.08-.01 26.16-.01 39.24 0v10.04c-9.1 0-18.2-.01-27.3 0-.01 3.91-.01 7.82 0 11.74 8.03.02 16.06.01 24.1 0 .01 3.24.01 6.48.01 9.72-8.03.02-16.07.01-24.11 0-.01 4.18-.01 8.36.01 12.55 9.41-.01 18.83-.02 28.25 0 .01 3.34.01 6.69 0 10.03-13.4.01-26.8 0-40.2.01-.01-18.03-.01-36.06 0-54.09z"
            id="prefix__Z" />
        <path
            d="M574.83 484.73c8.72.06 17.46-.14 26.17.09 9.58.49 18.76 5.27 23.17 14.03 5.02 10.16 3.67 24.49-4.92 32.4-5.49 5.21-12.75 7.47-20.22 7.55-8.06.05-16.13 0-24.2.01-.01-18.02-.01-36.05 0-54.08zm12.02 10.3c0 11.17-.02 22.34.01 33.51 7.09-.34 15.63 1.39 21.63-3.05 6.44-4.5 7.62-13.3 5.35-20.35-1.79-5.2-6.48-8.89-11.86-9.76-4.96-.72-10.13-.37-15.13-.35z"
            id="prefix__aa" />
        <path
            d="M486.62 494.9c4.13.06 8.31-.22 12.42.18 3.03.35 5.88 1.71 7.37 4.49 2.13 4.51 1.19 10.89-3.85 13-4.8 1.9-10.88.93-15.98 1.08.07-6.25.01-12.5.04-18.75z"
            id="prefix__ab" />
        <path
            d="M586.85 495.03c5-.02 10.17-.37 15.13.35 5.38.87 10.07 4.56 11.86 9.76 2.27 7.05 1.09 15.85-5.35 20.35-6 4.44-14.54 2.71-21.63 3.05-.03-11.17-.01-22.34-.01-33.51z"
            id="prefix__ac" />
        <path
            d="M653.5 495.62c3.95-1.58 8.81-1.56 12.72.14 12.07 5.04 13.03 23.84 2.31 30.77-6.8 4.42-16.57 3.01-21.49-3.56-6.49-8.59-4.12-23.17 6.46-27.35z"
            id="prefix__ad" />
        <path
            d="M418.73 497.05c2.74 6.89 5.5 13.77 8.22 20.66-5.49 0-10.98.01-16.47-.01 2.77-6.87 5.47-13.78 8.25-20.65z"
            id="prefix__ae" />
        <path
            d="M255.96 579.18c5.51 2.57 11.01 2.12 16.9 2.39.79-.02 1.44.18 1.94.61 1.42 3.2 1.98 6.73 3.52 9.91-5.97-3.89-12.18-6.77-18.45-10.02-1.48-.76-2.82-1.62-3.91-2.89z"
            id="prefix__af" />
        <path
            d="M371 580.16c28.67.08 57.33-.11 86-.01 22-.37 44 0 66-.26 34.33.04 68.67-.01 103 0 18.33.26 36.66.02 55 .09 12.91.07 25.76-.27 38.66.47 5.57.37 10.59-1.27 15.78.12-2.36.52-6.83-.77-7.84 2.04-7.75 16.05-14.4 33.12-23.62 48.39-5.85 10.1-11.5 20.37-17.78 30.21-8.16 12.1-16.52 24.08-25.28 35.75-8.34 11.13-17.89 20.35-27.47 30.49-17.38 18.6-37.02 35.25-56.98 51.01-9.99 8.07-21.02 14.33-31.86 21.15-7.69 4.76-15.88 8.73-23.73 13.25-1.77.92-3.65 2.16-5.63 2.55-3.3-.81-6.41-2.72-9.42-4.27-15.21-8.39-29.78-18.14-44.21-27.79-13.14-9.02-25.91-18.52-37.75-29.21-21.53-18.24-40.46-38.89-58.4-60.61-3.63-4.4-7.15-8.88-10.39-13.58-9.74-13.98-19.71-28.06-28.12-42.9-9.92-18.37-18.61-37.54-27.9-56.2 18.65.09 37.29-.25 55.94-.08 5.35.08 10.66-.55 16-.61zm46.9 24.92c-.01 39.28-.01 78.56 0 117.84h22.33c.03-14.32-.03-28.64.03-42.96 14.88-.02 29.76.09 44.64-.02 0-7.28 0-14.55-.01-21.82-14.88-.01-29.77 0-44.65-.01-.01-10.38-.01-20.77 0-31.15 16.86-.01 33.72.01 50.59-.01v-21.87c-24.31-.01-48.62-.01-72.93 0zm85.33 0v117.84c6.98.01 13.97 0 20.95 0 .03-23.05-.03-46.09.03-69.13 9.43 18.9 18.8 37.84 28.27 56.72 3.33-.02 6.66-.02 10 0 9.5-19.39 18.92-38.83 28.4-58.23.02 23.55.11 47.09.18 70.64h20.89c-.03-39.28-.14-78.56-.22-117.84-6.12 0-12.24-.02-18.36.01-11.84 24.41-23.68 48.82-35.55 73.21-12.05-24.39-24.08-48.8-36.1-73.21-6.17-.03-12.33-.02-18.49-.01zm-21.06 151.13l1.77.63c.27 7.33.01 14.71.11 22.06 1.51-.01 3.01-.02 4.52-.02v-31.72c-1.28.04-2.58.03-3.86.17-1.03 2.89-1.69 5.93-2.54 8.88zm19.79 9.06v9.55c-1.91 0-3.81 0-5.72-.01v-5.54h-4.54c.26 2.73-.74 6.8.88 9.13 3.5.97 7.78.41 11.44.42 1.88.04 2.55-1.24 2.54-2.94.05-8.58.07-17.17-.01-25.75.03-1.66-.76-2.87-2.54-2.85-3.57-.11-7.24-.25-10.81.13-1.56.32-1.59 2.29-1.61 3.56 0 4.02-.14 8.06.1 12.07-.04.85.41 1.53 1.34 2.06 2.94.36 5.97.16 8.93.17zm6.84-9.37c1.48.01 2.96.01 4.44.02 0-1.55.01-3.1.01-4.64h5.87c-2.27 9.21-4.61 18.41-6.88 27.62 1.57-.01 3.15-.01 4.72-.02 2.11-8.46 4.18-16.95 6.36-25.39.52-2.06.72-4.15.88-6.26-5.1.06-10.24-.16-15.33.07-.18 2.86-.07 5.74-.07 8.6zm17.26 6.73c3.41 0 6.82 0 10.24.01.01 4.06.01 8.12 0 12.18-1.9-.01-3.81-.01-5.71-.01 0-2.04 0-4.08-.01-6.12h-4.52c-.01 2.44-.1 4.9.04 7.34.05 1.37.39 2.64 1.99 2.74 3.45.24 7.36.25 10.81-.02 1.99-.2 1.86-2.2 1.95-3.71-.03-4.67.12-9.38-.09-14.05-.01-1.4-.79-2.22-2.17-2.34-2.67-.2-5.38-.06-8.06-.07l.3-7.2c3.26-.01 6.53-.01 9.8-.01 0-1.38.01-2.77.01-4.15-4.67.07-9.36-.16-14.02.09-.38 5.09-.34 10.22-.56 15.32z"
            id="prefix__ag" />
        <path
            d="M292.24 581.15c2.27-.19 4.54-.28 6.82-.3 9.29 18.66 17.98 37.83 27.9 56.2 8.41 14.84 18.38 28.92 28.12 42.9 3.24 4.7 6.76 9.18 10.39 13.58 17.94 21.72 36.87 42.37 58.4 60.61 11.84 10.69 24.61 20.19 37.75 29.21 14.43 9.65 29 19.4 44.21 27.79 3.01 1.55 6.12 3.46 9.42 4.27 1.98-.39 3.86-1.63 5.63-2.55 7.85-4.52 16.04-8.49 23.73-13.25 10.84-6.82 21.87-13.08 31.86-21.15 19.96-15.76 39.6-32.41 56.98-51.01 9.58-10.14 19.13-19.36 27.47-30.49 8.76-11.67 17.12-23.65 25.28-35.75 6.28-9.84 11.93-20.11 17.78-30.21 9.22-15.27 15.87-32.34 23.62-48.39 1.01-2.81 5.48-1.52 7.84-2.04-.95 2.59-2 5.13-3.26 7.58-7.86 15.57-15.11 31.19-23.57 46.46-7.34 13.33-14.8 26.94-23.8 39.22-9.03 12.52-18.32 24.9-28.16 36.79-13.23 14.73-27.16 28.87-41.38 42.65-13.03 11.71-26.76 22.8-41.04 32.96a968.28 968.28 0 01-27.14 17.86c-9.41 5.64-19.02 10.96-28.44 16.58-1.39.76-2.89 1.76-4.47 2.03-2.04-.73-3.95-1.95-5.84-3.02-14.67-8.46-29.89-16.62-43.87-26.14-12.17-8.38-24-17.24-35.37-26.68-9.57-8.01-19.51-15.79-28.4-24.56-14.97-14.02-28.67-29.47-41.86-45.16-13.4-15.76-24.3-33.18-35.24-50.74-3.61-5.55-6.97-11.23-9.73-17.26-7.47-15.86-14.95-31.79-21.63-47.99z"
            id="prefix__ah" />
        <path
            d="M770.83 581.03c-6.92 4.15-14.4 7.42-21.2 11.77 1.56-3.4 2.45-6.89 3.66-10.53 5.87-.25 11.71-.51 17.54-1.24z"
            id="prefix__ai" />
        <path
            d="M417.9 605.08c24.31-.01 48.62-.01 72.93 0v21.87c-16.87.02-33.73 0-50.59.01-.01 10.38-.01 20.77 0 31.15 14.88.01 29.77 0 44.65.01.01 7.27.01 14.54.01 21.82-14.88.11-29.76 0-44.64.02-.06 14.32 0 28.64-.03 42.96H417.9c-.01-39.28-.01-78.56 0-117.84z"
            id="prefix__aj" />
        <path
            d="M503.23 605.08c6.16-.01 12.32-.02 18.49.01 12.02 24.41 24.05 48.82 36.1 73.21 11.87-24.39 23.71-48.8 35.55-73.21 6.12-.03 12.24-.01 18.36-.01.08 39.28.19 78.56.22 117.84h-20.89c-.07-23.55-.16-47.09-.18-70.64-9.48 19.4-18.9 38.84-28.4 58.23-3.34-.02-6.67-.02-10 0-9.47-18.88-18.84-37.82-28.27-56.72-.06 23.04 0 46.08-.03 69.13-6.98 0-13.97.01-20.95 0V605.08z"
            id="prefix__ak" />
        <path
            d="M484.71 747.33c1.28-.14 2.58-.13 3.86-.17v31.72c-1.51 0-3.01.01-4.52.02-.1-7.35.16-14.73-.11-22.06l-1.77-.63c.85-2.95 1.51-5.99 2.54-8.88z"
            id="prefix__al" />
        <path
            d="M493.2 747.41c3.57-.38 7.24-.24 10.81-.13 1.78-.02 2.57 1.19 2.54 2.85.08 8.58.06 17.17.01 25.75.01 1.7-.66 2.98-2.54 2.94-3.66-.01-7.94.55-11.44-.42-1.62-2.33-.62-6.4-.88-9.13h4.54v5.54c1.91.01 3.81.01 5.72.01v-9.55c-2.96-.01-5.99.19-8.93-.17-.93-.53-1.38-1.21-1.34-2.06-.24-4.01-.1-8.05-.1-12.07.02-1.27.05-3.24 1.61-3.56zm2.92 3.87c-.01 3.33-.01 6.66 0 9.99 1.95 0 3.89 0 5.83.01.02-3.34.02-6.67.01-10.01-1.95 0-3.9.01-5.84.01z"
            id="prefix__am" />
        <path
            d="M508.87 747.3c5.09-.23 10.23-.01 15.33-.07-.16 2.11-.36 4.2-.88 6.26-2.18 8.44-4.25 16.93-6.36 25.39-1.57.01-3.15.01-4.72.02 2.27-9.21 4.61-18.41 6.88-27.62h-5.87c0 1.54-.01 3.09-.01 4.64-1.48-.01-2.96-.01-4.44-.02 0-2.86-.11-5.74.07-8.6z"
            id="prefix__an" />
        <path
            d="M526.62 747.31c4.66-.25 9.35-.02 14.02-.09 0 1.38-.01 2.77-.01 4.15-3.27 0-6.54 0-9.8.01l-.3 7.2c2.68.01 5.39-.13 8.06.07 1.38.12 2.16.94 2.17 2.34.21 4.67.06 9.38.09 14.05-.09 1.51.04 3.51-1.95 3.71-3.45.27-7.36.26-10.81.02-1.6-.1-1.94-1.37-1.99-2.74-.14-2.44-.05-4.9-.04-7.34h4.52c.01 2.04.01 4.08.01 6.12 1.9 0 3.81 0 5.71.01.01-4.06.01-8.12 0-12.18-3.42-.01-6.83-.01-10.24-.01.22-5.1.18-10.23.56-15.32z"
            id="prefix__ao" />
        <path
            d="M496.12 751.28c1.94 0 3.89-.01 5.84-.01.01 3.34.01 6.67-.01 10.01-1.94-.01-3.88-.01-5.83-.01-.01-3.33-.01-6.66 0-9.99z"
            id="prefix__ap" />
    </defs>
    <g stroke-width="10pt">
        <use stroke="#fff" xlink:href="#prefix__a" />
        <use stroke="#020578" xlink:href="#prefix__b" />
        <use stroke="#f9ea2a" xlink:href="#prefix__c" />
        <use stroke="#0110ab" xlink:href="#prefix__d" />
        <use stroke="#f9ea2a" xlink:href="#prefix__e" />
        <use stroke="#010487" xlink:href="#prefix__f" />
        <use stroke="#fff" xlink:href="#prefix__g" />
        <use stroke="#fff" xlink:href="#prefix__h" />
        <use stroke="#fff" xlink:href="#prefix__i" />
        <use stroke="#9c931a" xlink:href="#prefix__j" />
        <use stroke="#9c931a" xlink:href="#prefix__k" />
        <use stroke="#9c931a" xlink:href="#prefix__l" />
        <use stroke="#fff" xlink:href="#prefix__m" />
        <use stroke="#fff" xlink:href="#prefix__n" />
        <use stroke="#fff" xlink:href="#prefix__o" />
        <use stroke="#fff" xlink:href="#prefix__p" />
        <use stroke="#9c931a" xlink:href="#prefix__q" />
        <use stroke="#fff" xlink:href="#prefix__r" />
        <use stroke="#fff" xlink:href="#prefix__s" />
        <use stroke="#9c931a" xlink:href="#prefix__t" />
        <use stroke="#9c931a" xlink:href="#prefix__u" />
        <use stroke="#9c931a" xlink:href="#prefix__v" />
        <use stroke="#9c931a" xlink:href="#prefix__w" />
        <use stroke="#9c931a" xlink:href="#prefix__x" />
        <use stroke="#9c931a" xlink:href="#prefix__y" />
        <use stroke="#9c931a" xlink:href="#prefix__z" />
        <use stroke="#f9ea2a" xlink:href="#prefix__A" />
        <use stroke="#9c931a" xlink:href="#prefix__B" />
        <use stroke="#9c931a" xlink:href="#prefix__C" />
        <use stroke="#fff" xlink:href="#prefix__D" />
        <use stroke="#fff" xlink:href="#prefix__E" />
        <use stroke="#9c931a" xlink:href="#prefix__F" />
        <use stroke="#f9ea2a" xlink:href="#prefix__G" />
        <use stroke="#fff" xlink:href="#prefix__H" />
        <use stroke="#9c931a" xlink:href="#prefix__I" />
        <use stroke="#9c931a" xlink:href="#prefix__J" />
        <use stroke="#f9ea2a" xlink:href="#prefix__K" />
        <use stroke="#f9ea2a" xlink:href="#prefix__L" />
        <use stroke="#000" xlink:href="#prefix__M" />
        <use stroke="#000" xlink:href="#prefix__N" />
        <use stroke="#ccc" xlink:href="#prefix__O" />
        <use stroke="#fff" xlink:href="#prefix__P" />
        <use stroke="#ccc" xlink:href="#prefix__Q" />
        <use stroke="#010487" xlink:href="#prefix__R" />
        <use stroke="#010487" xlink:href="#prefix__S" />
        <use stroke="#010487" xlink:href="#prefix__T" />
        <use stroke="#010487" xlink:href="#prefix__U" />
        <use stroke="#010487" xlink:href="#prefix__V" />
        <use stroke="#010487" xlink:href="#prefix__W" />
        <use stroke="#010487" xlink:href="#prefix__X" />
        <use stroke="#010487" xlink:href="#prefix__Y" />
        <use stroke="#010487" xlink:href="#prefix__Z" />
        <use stroke="#010487" xlink:href="#prefix__aa" />
        <use stroke="#fff" xlink:href="#prefix__ab" />
        <use stroke="#fff" xlink:href="#prefix__ac" />
        <use stroke="#fff" xlink:href="#prefix__ad" />
        <use stroke="#fff" xlink:href="#prefix__ae" />
        <use stroke="#000" xlink:href="#prefix__af" />
        <use stroke="#010487" xlink:href="#prefix__ag" />
        <use stroke="#0110ab" xlink:href="#prefix__ah" />
        <use stroke="#000" xlink:href="#prefix__ai" />
        <use stroke="#fff" xlink:href="#prefix__aj" />
        <use stroke="#fff" xlink:href="#prefix__ak" />
        <use stroke="#fff" xlink:href="#prefix__al" />
        <use stroke="#fff" xlink:href="#prefix__am" />
        <use stroke="#fff" xlink:href="#prefix__an" />
        <use stroke="#fff" xlink:href="#prefix__ao" />
        <use stroke="#010487" xlink:href="#prefix__ap" />
    </g>
    <use fill="#fff" xlink:href="#prefix__a" />
    <use fill="#020578" xlink:href="#prefix__b" />
    <use fill="#f9ea2a" xlink:href="#prefix__c" />
    <use fill="#0110ab" xlink:href="#prefix__d" />
    <use fill="#f9ea2a" xlink:href="#prefix__e" />
    <use fill="#010487" xlink:href="#prefix__f" />
    <use fill="#fff" xlink:href="#prefix__g" />
    <use fill="#fff" xlink:href="#prefix__h" />
    <use fill="#fff" xlink:href="#prefix__i" />
    <use fill="#9c931a" xlink:href="#prefix__j" />
    <use fill="#9c931a" xlink:href="#prefix__k" />
    <use fill="#9c931a" xlink:href="#prefix__l" />
    <use fill="#fff" xlink:href="#prefix__m" />
    <use fill="#fff" xlink:href="#prefix__n" />
    <use fill="#fff" xlink:href="#prefix__o" />
    <use fill="#fff" xlink:href="#prefix__p" />
    <use fill="#9c931a" xlink:href="#prefix__q" />
    <use fill="#fff" xlink:href="#prefix__r" />
    <use fill="#fff" xlink:href="#prefix__s" />
    <use fill="#9c931a" xlink:href="#prefix__t" />
    <use fill="#9c931a" xlink:href="#prefix__u" />
    <use fill="#9c931a" xlink:href="#prefix__v" />
    <use fill="#9c931a" xlink:href="#prefix__w" />
    <use fill="#9c931a" xlink:href="#prefix__x" />
    <use fill="#9c931a" xlink:href="#prefix__y" />
    <use fill="#9c931a" xlink:href="#prefix__z" />
    <use fill="#f9ea2a" xlink:href="#prefix__A" />
    <use fill="#9c931a" xlink:href="#prefix__B" />
    <use fill="#9c931a" xlink:href="#prefix__C" />
    <use fill="#fff" xlink:href="#prefix__D" />
    <use fill="#fff" xlink:href="#prefix__E" />
    <use fill="#9c931a" xlink:href="#prefix__F" />
    <use fill="#f9ea2a" xlink:href="#prefix__G" />
    <use fill="#fff" xlink:href="#prefix__H" />
    <use fill="#9c931a" xlink:href="#prefix__I" />
    <use fill="#9c931a" xlink:href="#prefix__J" />
    <use fill="#f9ea2a" xlink:href="#prefix__K" />
    <use fill="#f9ea2a" xlink:href="#prefix__L" />
    <use xlink:href="#prefix__M" />
    <use xlink:href="#prefix__N" />
    <use fill="#ccc" xlink:href="#prefix__O" />
    <use fill="#fff" xlink:href="#prefix__P" />
    <use fill="#ccc" xlink:href="#prefix__Q" />
    <use fill="#010487" xlink:href="#prefix__R" />
    <use fill="#010487" xlink:href="#prefix__S" />
    <use fill="#010487" xlink:href="#prefix__T" />
    <use fill="#010487" xlink:href="#prefix__U" />
    <use fill="#010487" xlink:href="#prefix__V" />
    <use fill="#010487" xlink:href="#prefix__W" />
    <use fill="#010487" xlink:href="#prefix__X" />
    <use fill="#010487" xlink:href="#prefix__Y" />
    <use fill="#010487" xlink:href="#prefix__Z" />
    <use fill="#010487" xlink:href="#prefix__aa" />
    <use fill="#fff" xlink:href="#prefix__ab" />
    <use fill="#fff" xlink:href="#prefix__ac" />
    <use fill="#fff" xlink:href="#prefix__ad" />
    <use fill="#fff" xlink:href="#prefix__ae" />
    <use xlink:href="#prefix__af" />
    <use fill="#010487" xlink:href="#prefix__ag" />
    <use fill="#0110ab" xlink:href="#prefix__ah" />
    <use xlink:href="#prefix__ai" />
    <use fill="#fff" xlink:href="#prefix__aj" />
    <use fill="#fff" xlink:href="#prefix__ak" />
    <use fill="#fff" xlink:href="#prefix__al" />
    <use fill="#fff" xlink:href="#prefix__am" />
    <use fill="#fff" xlink:href="#prefix__an" />
    <use fill="#fff" xlink:href="#prefix__ao" />
    <use fill="#010487" xlink:href="#prefix__ap" />
</svg>